<?xml version="1.0" encoding="utf-8"?>
<svg viewBox="0 0 134.8 97.8" xmlns="http://www.w3.org/2000/svg">
  <path d="M 26.486 48.604 C 26.486 35.739 45.351 25.31 68.62 25.31 C 91.89 25.31 110.754 35.739 110.754 48.604" fill="none" stroke="#3f3d56" stroke-miterlimit="10" stroke-width="2" style=""/>
  <path d="M 81.868 34.278 L 47.59 34.278 C 40.811 22.852 40.811 11.427 47.59 0 L 81.868 0 C 72.388 11.427 72.388 22.852 81.868 34.278 Z" fill="#e6e6e6" style=""/>
  <rect x="52.487" y="4.081" width="19.316" height="2.448" fill="#d79f00" style=""/>
  <rect x="46.23" y="12.107" width="25.572" height="0.816" fill="#fff" style=""/>
  <rect x="46.23" y="16.324" width="25.572" height="0.816" fill="#fff" style=""/>
  <rect x="46.23" y="20.54" width="25.572" height="0.816" fill="#fff" style=""/>
  <path d="M 72.265 67.525 L 70.944 68.351 C 70.944 68.351 72.347 73.223 72.925 73.388 C 73.503 73.554 74.864 69.222 74.864 69.222 L 72.265 67.525 Z" fill="#a0616a" style=""/>
  <path d="M 110.754 48.604 C 110.754 62.092 91.89 73.025 68.62 73.025 C 45.351 73.025 26.486 62.092 26.486 48.604" fill="none" stroke="#3f3d56" stroke-miterlimit="10" stroke-width="2" style=""/>
  <path d="M 103.09 73.372 C 93.671 78.451 81.383 81.525 67.94 81.525 C 55.052 81.525 43.223 78.699 33.97 73.989" fill="none" stroke="#3f3d56" stroke-miterlimit="10" stroke-width="2" style=""/>
  <path d="M 89.661 19.004 C 107.584 23.715 120.349 34.077 121.536 46.282" fill="none" stroke="#3f3d56" stroke-miterlimit="10" stroke-width="2" style=""/>
  <path d="M 16.841 38.35 C 19.86 32.799 25.377 27.914 32.606 24.162" fill="none" stroke="#3f3d56" stroke-miterlimit="10" stroke-width="2" style=""/>
  <path d="M 53.894 97.766 L 88.172 97.766 C 94.951 86.34 94.951 74.915 88.172 63.488 L 53.894 63.488 C 63.374 74.915 63.374 86.34 53.894 97.766 Z" fill="#f2f2f2" style=""/>
  <rect x="65.235" y="70.018" width="19.316" height="2.448" fill="#d79f00" style=""/>
  <rect x="63.739" y="77.362" width="25.572" height="0.816" fill="#fff" style=""/>
  <rect x="63.739" y="81.579" width="25.572" height="0.816" fill="#fff" style=""/>
  <path d="M 39.364 74.5 L 5.085 74.5 C -1.695 63.074 -1.695 51.648 5.085 40.222 L 39.364 40.222 C 29.884 51.648 29.884 63.074 39.364 74.5 Z" fill="#f2f2f2" style=""/>
  <rect x="8.895" y="44.302" width="19.316" height="2.448" fill="#d79f00" style=""/>
  <rect x="4.678" y="51.104" width="25.572" height="0.816" fill="#fff" style=""/>
  <rect x="4.678" y="55.321" width="25.572" height="0.816" fill="#fff" style=""/>
  <rect x="4.678" y="59.538" width="25.572" height="0.816" fill="#fff" style=""/>
  <rect x="4.678" y="63.755" width="25.572" height="0.816" fill="#fff" style=""/>
  <path d="M 95.403 58.71 L 129.681 58.71 C 136.46 47.284 136.46 35.858 129.681 24.432 L 95.403 24.432 C 104.882 35.858 104.882 47.284 95.403 58.71 Z" fill="#f2f2f2" style=""/>
  <rect x="106.336" y="27.833" width="19.316" height="2.448" fill="#d79f00" style=""/>
  <rect x="104.296" y="34.634" width="25.572" height="0.816" fill="#fff" style=""/>
</svg>
