<?xml version="1.0" encoding="utf-8"?>
<svg viewBox="0 0 364.8 237.6" xmlns="http://www.w3.org/2000/svg">
  <path d="M 240.5 227.691 C 239.948 227.691 239.5 227.243 239.5 226.691 L 239.5 185.691 C 239.5 184.921 240.333 184.44 241 184.825 C 241.31 185.004 241.5 185.334 241.5 185.691 L 241.5 226.691 C 241.5 227.243 241.052 227.691 240.5 227.691 Z" fill="#3f3d56" transform="matrix(0.9999999999999999, 0, 0, 0.9999999999999999, -2.842170943040401e-14, -5.684341886080802e-14)"/>
  <path d="M 239.129 169.691 C 238.953 169.691 238.779 169.644 238.627 169.555 L 181.812 136.451 C 181.147 136.063 181.152 135.1 181.821 134.719 C 182.131 134.543 182.51 134.544 182.818 134.723 L 239.634 167.827 C 240.299 168.214 240.295 169.177 239.627 169.559 C 239.475 169.646 239.304 169.691 239.129 169.691 Z" fill="#3f3d56" transform="matrix(0.9999999999999999, 0, 0, 0.9999999999999999, -2.842170943040401e-14, -5.684341886080802e-14)"/>
  <path d="M 125.501 169.691 C 124.731 169.692 124.249 168.859 124.634 168.192 C 124.721 168.04 124.846 167.915 124.997 167.827 L 181.812 134.723 C 182.479 134.338 183.312 134.82 183.312 135.59 C 183.311 135.944 183.124 136.272 182.818 136.451 L 126.003 169.555 C 125.851 169.644 125.678 169.691 125.501 169.691 Z" fill="#3f3d56" transform="matrix(0.9999999999999999, 0, 0, 0.9999999999999999, -2.842170943040401e-14, -5.684341886080802e-14)"/>
  <path d="M 298.129 219.691 C 297.953 219.691 297.779 219.644 297.627 219.555 L 240.812 186.451 C 240.147 186.063 240.152 185.1 240.821 184.719 C 241.131 184.543 241.51 184.544 241.818 184.723 L 298.634 217.827 C 299.299 218.214 299.295 219.177 298.627 219.559 C 298.475 219.646 298.304 219.691 298.129 219.691 Z" fill="#3f3d56" transform="matrix(0.9999999999999999, 0, 0, 0.9999999999999999, -2.842170943040401e-14, -5.684341886080802e-14)"/>
  <path d="M 184.501 219.691 C 183.731 219.692 183.249 218.859 183.634 218.192 C 183.721 218.04 183.846 217.915 183.997 217.827 L 240.812 184.723 C 241.479 184.338 242.312 184.82 242.312 185.59 C 242.311 185.944 242.124 186.272 241.818 186.451 L 185.003 219.555 C 184.851 219.644 184.678 219.691 184.501 219.691 Z" fill="#3f3d56" transform="matrix(0.9999999999999999, 0, 0, 0.9999999999999999, -2.842170943040401e-14, -5.684341886080802e-14)"/>
  <path d="M 182.5 118.691 C 181.949 118.691 181.501 118.245 181.5 117.694 L 181.408 81.306 C 181.406 80.754 181.853 80.305 182.405 80.304 L 182.408 80.304 C 182.959 80.304 183.406 80.75 183.408 81.301 L 183.5 117.689 C 183.502 118.241 183.055 118.69 182.503 118.691 L 182.5 118.691 Z" fill="#3f3d56" transform="matrix(0.9999999999999999, 0, 0, 0.9999999999999999, -2.842170943040401e-14, -5.684341886080802e-14)"/>
  <path d="M 195.434 137.607 L 169.382 137.607 C 166.898 137.604 164.885 135.591 164.882 133.107 L 164.882 119.726 C 164.885 117.242 166.898 115.229 169.382 115.226 L 195.434 115.226 C 197.918 115.229 199.931 117.242 199.934 119.726 L 199.934 133.107 C 199.931 135.591 197.918 137.604 195.434 137.607 Z" fill="#ccc" transform="matrix(0.9999999999999999, 0, 0, 0.9999999999999999, -2.842170943040401e-14, -5.684341886080802e-14)"/>
  <path d="M 152.315 69.587 L 96.882 69.587 C 96.112 69.587 95.631 68.754 96.016 68.087 C 96.194 67.778 96.524 67.587 96.882 67.587 L 152.315 67.587 C 153.085 67.587 153.566 68.42 153.181 69.087 C 153.002 69.396 152.672 69.587 152.315 69.587 Z" fill="#3f3d56" transform="matrix(0.9999999999999999, 0, 0, 0.9999999999999999, -2.842170943040401e-14, -5.684341886080802e-14)"/>
  <path d="M 182.408 55.304 C 181.855 55.304 181.408 54.856 181.408 54.304 L 181.408 19.691 C 181.408 18.921 182.241 18.44 182.908 18.825 C 183.217 19.004 183.408 19.334 183.408 19.691 L 183.408 54.304 C 183.408 54.856 182.96 55.304 182.408 55.304 Z" fill="#3f3d56" transform="matrix(0.9999999999999999, 0, 0, 0.9999999999999999, -2.842170943040401e-14, -5.684341886080802e-14)"/>
  <path d="M 75.314 69.587 C 75.135 69.587 74.959 69.539 74.805 69.447 L 20.99 37.551 C 20.329 37.157 20.342 36.195 21.014 35.819 C 21.325 35.646 21.704 35.65 22.01 35.831 L 75.825 67.727 C 76.487 68.119 76.476 69.082 75.805 69.459 C 75.655 69.543 75.486 69.587 75.314 69.587 Z" fill="#3f3d56" transform="matrix(0.9999999999999999, 0, 0, 0.9999999999999999, -2.842170943040401e-14, -5.684341886080802e-14)"/>
  <path d="M 21.501 101.483 C 20.731 101.484 20.249 100.651 20.634 99.984 C 20.72 99.835 20.842 99.71 20.99 99.623 L 74.805 67.727 C 75.468 67.334 76.306 67.806 76.315 68.576 C 76.319 68.933 76.132 69.265 75.825 69.447 L 22.01 101.343 C 21.856 101.435 21.68 101.483 21.501 101.483 Z" fill="#3f3d56" transform="matrix(0.9999999999999999, 0, 0, 0.9999999999999999, -2.842170943040401e-14, -5.684341886080802e-14)"/>
  <path d="M 92.882 85.717 L 79.5 85.717 C 77.016 85.714 75.003 83.701 75 81.217 L 75 55.165 C 75.003 52.681 77.016 50.668 79.5 50.665 L 92.882 50.665 C 95.366 50.668 97.379 52.681 97.382 55.165 L 97.382 81.217 C 97.379 83.701 95.366 85.714 92.882 85.717 Z" fill="#ccc" transform="matrix(0.9999999999999999, 0, 0, 0.9999999999999999, -2.842170943040401e-14, -5.684341886080802e-14)"/>
  <path d="M 195.434 22.382 L 169.382 22.382 C 166.898 22.379 164.885 20.366 164.882 17.882 L 164.882 4.5 C 164.885 2.016 166.898 0.003 169.382 0 L 195.434 0 C 197.918 0.003 199.931 2.016 199.934 4.5 L 199.934 17.882 C 199.931 20.366 197.918 22.379 195.434 22.382 Z" fill="#ccc" transform="matrix(0.9999999999999999, 0, 0, 0.9999999999999999, -2.842170943040401e-14, -5.684341886080802e-14)"/>
  <path d="M 17.882 54.717 L 4.5 54.717 C 2.016 54.714 0.003 52.701 0 50.217 L 0 24.165 C 0.003 21.681 2.016 19.668 4.5 19.665 L 17.882 19.665 C 20.366 19.668 22.379 21.681 22.382 24.165 L 22.382 50.217 C 22.379 52.701 20.366 54.714 17.882 54.717 Z" fill="#ccc" transform="matrix(0.9999999999999999, 0, 0, 0.9999999999999999, -2.842170943040401e-14, -5.684341886080802e-14)"/>
  <path d="M 17.882 117.717 L 4.5 117.717 C 2.016 117.714 0.003 115.701 0 113.217 L 0 87.165 C 0.003 84.681 2.016 82.668 4.5 82.665 L 17.882 82.665 C 20.366 82.668 22.379 84.681 22.382 87.165 L 22.382 113.217 C 22.379 115.701 20.366 117.714 17.882 117.717 Z" fill="#ccc" transform="matrix(0.9999999999999999, 0, 0, 0.9999999999999999, -2.842170943040401e-14, -5.684341886080802e-14)"/>
  <path d="M 267.934 69.587 L 212.5 69.587 C 211.73 69.587 211.249 68.754 211.634 68.087 C 211.813 67.778 212.143 67.587 212.5 67.587 L 267.934 67.587 C 268.704 67.587 269.185 68.42 268.8 69.087 C 268.621 69.396 268.291 69.587 267.934 69.587 Z" fill="#3f3d56" transform="matrix(0.9999999999999999, 0, 0, 0.9999999999999999, -2.842170943040401e-14, -5.684341886080802e-14)"/>
  <path d="M 289.501 69.587 C 288.731 69.588 288.249 68.755 288.634 68.088 C 288.719 67.939 288.842 67.814 288.99 67.727 L 342.805 35.831 C 343.468 35.438 344.306 35.91 344.315 36.68 C 344.319 37.037 344.132 37.369 343.825 37.551 L 290.01 69.447 C 289.856 69.539 289.68 69.587 289.501 69.587 Z" fill="#3f3d56" transform="matrix(0.9999999999999999, 0, 0, 0.9999999999999999, -2.842170943040401e-14, -5.684341886080802e-14)"/>
  <path d="M 343.314 101.483 C 343.135 101.483 342.959 101.435 342.805 101.343 L 288.99 69.447 C 288.328 69.055 288.339 68.093 289.01 67.715 C 289.321 67.54 289.702 67.545 290.01 67.727 L 343.825 99.623 C 344.487 100.015 344.476 100.977 343.805 101.355 C 343.655 101.439 343.486 101.483 343.314 101.483 Z" fill="#3f3d56" transform="matrix(0.9999999999999999, 0, 0, 0.9999999999999999, -2.842170943040401e-14, -5.684341886080802e-14)"/>
  <path d="M 285.315 85.717 L 271.934 85.717 C 269.45 85.714 267.437 83.701 267.434 81.217 L 267.434 55.165 C 267.437 52.681 269.45 50.668 271.934 50.665 L 285.315 50.665 C 287.799 50.668 289.812 52.681 289.815 55.165 L 289.815 81.217 C 289.812 83.701 287.799 85.714 285.315 85.717 Z" fill="#ccc" transform="matrix(0.9999999999999999, 0, 0, 0.9999999999999999, -2.842170943040401e-14, -5.684341886080802e-14)"/>
  <path d="M 360.315 54.717 L 346.934 54.717 C 344.45 54.714 342.437 52.701 342.434 50.217 L 342.434 24.165 C 342.437 21.681 344.45 19.668 346.934 19.665 L 360.315 19.665 C 362.799 19.668 364.812 21.681 364.815 24.165 L 364.815 50.217 C 364.812 52.701 362.799 54.714 360.315 54.717 Z" fill="#ccc" transform="matrix(0.9999999999999999, 0, 0, 0.9999999999999999, -2.842170943040401e-14, -5.684341886080802e-14)"/>
  <path d="M 360.315 117.717 L 346.934 117.717 C 344.45 117.714 342.437 115.701 342.434 113.217 L 342.434 87.165 C 342.437 84.681 344.45 82.668 346.934 82.665 L 360.315 82.665 C 362.799 82.668 364.812 84.681 364.815 87.165 L 364.815 113.217 C 364.812 115.701 362.799 117.714 360.315 117.717 Z" fill="#ccc" transform="matrix(0.9999999999999999, 0, 0, 0.9999999999999999, -2.842170943040401e-14, -5.684341886080802e-14)"/>
  <path d="M 137.434 188.607 L 111.382 188.607 C 108.897 188.604 106.884 186.591 106.882 184.107 L 106.882 170.726 C 106.884 168.242 108.897 166.229 111.382 166.226 L 137.434 166.226 C 139.918 166.229 141.931 168.242 141.934 170.726 L 141.934 184.107 C 141.931 186.591 139.918 188.604 137.434 188.607 Z" fill="#ccc" transform="matrix(0.9999999999999999, 0, 0, 0.9999999999999999, -2.842170943040401e-14, -5.684341886080802e-14)"/>
  <path d="M 253.249 188.607 L 227.197 188.607 C 224.713 188.604 222.699 186.591 222.697 184.107 L 222.697 170.726 C 222.699 168.242 224.713 166.229 227.197 166.226 L 253.249 166.226 C 255.733 166.229 257.746 168.242 257.749 170.726 L 257.749 184.107 C 257.746 186.591 255.733 188.604 253.249 188.607 Z" fill="#ccc" transform="matrix(0.9999999999999999, 0, 0, 0.9999999999999999, -2.842170943040401e-14, -5.684341886080802e-14)"/>
  <path d="M 200.249 237.607 L 174.197 237.607 C 171.713 237.604 169.699 235.591 169.697 233.107 L 169.697 219.726 C 169.699 217.242 171.713 215.229 174.197 215.226 L 200.249 215.226 C 202.733 215.229 204.746 217.242 204.749 219.726 L 204.749 233.107 C 204.746 235.591 202.733 237.604 200.249 237.607 Z" fill="#ccc" transform="matrix(0.9999999999999999, 0, 0, 0.9999999999999999, -2.842170943040401e-14, -5.684341886080802e-14)"/>
  <path d="M 311.249 237.607 L 285.197 237.607 C 282.713 237.604 280.699 235.591 280.697 233.107 L 280.697 219.726 C 280.699 217.242 282.713 215.229 285.197 215.226 L 311.249 215.226 C 313.733 215.229 315.746 217.242 315.749 219.726 L 315.749 233.107 C 315.746 235.591 313.733 237.604 311.249 237.607 Z" fill="#ccc" transform="matrix(0.9999999999999999, 0, 0, 0.9999999999999999, -2.842170943040401e-14, -5.684341886080802e-14)"/>
  <path d="M 253.249 237.607 L 227.197 237.607 C 224.713 237.604 222.699 235.591 222.697 233.107 L 222.697 219.726 C 222.699 217.242 224.713 215.229 227.197 215.226 L 253.249 215.226 C 255.733 215.229 257.746 217.242 257.749 219.726 L 257.749 233.107 C 257.746 235.591 255.733 237.604 253.249 237.607 Z" fill="#ccc" transform="matrix(0.9999999999999999, 0, 0, 0.9999999999999999, -2.842170943040401e-14, -5.684341886080802e-14)"/>
  <path d="M 214.077 85.983 L 150.738 85.983 C 148.254 85.98 146.241 83.967 146.238 81.483 L 146.238 55.691 C 146.241 53.207 148.254 51.194 150.738 51.191 L 214.077 51.191 C 216.561 51.194 218.574 53.207 218.577 55.691 L 218.577 81.483 C 218.574 83.967 216.561 85.98 214.077 85.983 Z" fill="#d79f00" transform="matrix(0.9999999999999999, 0, 0, 0.9999999999999999, -2.842170943040401e-14, -5.684341886080802e-14)"/>
</svg>
